<svg width="60" height="60" viewBox="0 0 60 60" fill="none" xmlns="http://www.w3.org/2000/svg">
<path d="M30.7687 7.51859C30.4979 7.51832 30.2302 7.57686 29.9841 7.69017C29.7381 7.80347 29.5196 7.96884 29.3437 8.17484L29.1562 8.30984C23.5125 6.65234 17.1112 7.93484 12.645 12.1611C8.68125 15.9073 7.16625 21.0898 8.09625 25.9386L8.04 25.9911L5.52375 28.3723C5.01107 28.8453 4.60193 29.4194 4.32208 30.0584C4.04224 30.6973 3.89777 31.3873 3.89777 32.0848C3.89777 32.7824 4.04224 33.4724 4.32208 34.1113C4.60193 34.7503 5.01107 35.3243 5.52375 35.7973C6.80625 37.0161 8.56875 37.5111 10.2375 37.2823C10.4775 38.1561 10.9612 38.9848 11.685 39.6711C12.6637 40.5973 13.92 41.1036 15.2025 41.1936C15.2962 42.4048 15.8325 43.5936 16.815 44.5198C17.79 45.4461 19.0462 45.9523 20.3287 46.0423C20.4225 47.2536 20.9587 48.4423 21.9412 49.3686C22.9193 50.2725 24.1789 50.8118 25.508 50.8958C26.8372 50.9798 28.1547 50.6034 29.2387 49.8298L30.4762 50.9998C32.6512 53.0623 36.1875 53.0623 38.3662 50.9998C39.3412 50.0773 39.8812 48.8961 39.9787 47.6886C41.2537 47.5948 42.4987 47.0886 43.4737 46.1661C44.4487 45.2436 44.9887 44.0623 45.0862 42.8548C46.3425 42.7498 47.5687 42.2436 48.5362 41.3361C49.29 40.6198 49.785 39.7461 50.01 38.8273C51.66 39.0261 53.3812 38.5273 54.645 37.3348C55.1577 36.8618 55.5668 36.2878 55.8467 35.6488C56.1265 35.0099 56.271 34.3199 56.271 33.6223C56.271 32.9248 56.1265 32.2348 55.8467 31.5959C55.5668 30.9569 55.1577 30.3828 54.645 29.9098L52.4175 27.8023L52.8412 26.2273C53.824 22.5784 53.3267 18.6891 51.4575 15.4048C48.7012 10.5223 43.365 7.52984 37.62 7.52984H33.7987C33.6264 7.5219 33.4538 7.51815 33.2812 7.51859H30.765H30.7687ZM47.1637 27.9823L48.9862 29.7823C49.0999 29.893 49.2272 29.9887 49.365 30.0673L51.9187 32.4823C52.0758 32.627 52.2011 32.8027 52.2869 32.9983C52.3726 33.1938 52.4169 33.4051 52.4169 33.6186C52.4169 33.8321 52.3726 34.0433 52.2869 34.2389C52.2011 34.4345 52.0758 34.6101 51.9187 34.7548C51.5919 35.0563 51.1634 35.2237 50.7187 35.2237C50.274 35.2237 49.8456 35.0563 49.5187 34.7548L45.2437 30.7161C44.8731 30.3737 44.3871 30.1836 43.8825 30.1836C43.3779 30.1836 42.8919 30.3737 42.5212 30.7161L42.4762 30.7536C42.2991 30.9185 42.1578 31.1182 42.0612 31.3401C41.9646 31.5621 41.9147 31.8015 41.9147 32.0436C41.9147 32.2856 41.9646 32.5251 42.0612 32.7471C42.1578 32.969 42.2991 33.1687 42.4762 33.3336L45.81 36.4836C45.9671 36.6286 46.0925 36.8046 46.1783 37.0005C46.2641 37.1964 46.3084 37.4079 46.3084 37.6217C46.3084 37.8356 46.2641 38.0471 46.1783 38.2429C46.0925 38.4388 45.9671 38.6148 45.81 38.7598C45.5123 39.0353 45.1293 39.2004 44.7246 39.2277C44.32 39.255 43.9182 39.1428 43.5862 38.9098C43.2092 38.6427 42.7517 38.5137 42.2906 38.5444C41.8296 38.5752 41.3932 38.7638 41.055 39.0786C40.7283 39.3827 40.5301 39.8001 40.5008 40.2455C40.4716 40.6908 40.6134 41.1306 40.8975 41.4748C41.147 41.78 41.2705 42.169 41.2426 42.5621C41.2147 42.9553 41.0376 43.323 40.7475 43.5898C40.4458 43.8691 40.0564 44.0348 39.646 44.0588C39.2356 44.0827 38.8296 43.9633 38.4975 43.7211C38.1221 43.4466 37.6632 43.3108 37.1989 43.3368C36.7346 43.3628 36.2937 43.549 35.9512 43.8636C35.6203 44.1672 35.4186 44.5863 35.3879 45.0344C35.3572 45.4824 35.4998 45.9252 35.7862 46.2711C36.3112 46.9086 36.2625 47.8348 35.64 48.4236C35.3077 48.7293 34.8727 48.899 34.4212 48.899C33.9698 48.899 33.5347 48.7293 33.2025 48.4236L31.995 47.2836L32.31 46.9873C32.8227 46.5143 33.2318 45.9403 33.5117 45.3013C33.7915 44.6624 33.936 43.9724 33.936 43.2748C33.936 42.5773 33.7915 41.8873 33.5117 41.2484C33.2318 40.6094 32.8227 40.0353 32.31 39.5623C31.3494 38.6624 30.106 38.1243 28.7925 38.0398C28.6888 36.7687 28.1136 35.5823 27.18 34.7136C26.2209 33.8131 24.9789 33.2736 23.6662 33.1873C23.5625 31.9163 22.9874 30.7298 22.0537 29.8611C21.4281 29.2784 20.6802 28.8427 19.8647 28.5858C19.0492 28.3289 18.1867 28.2573 17.34 28.3761C17.0855 27.4633 16.5847 26.6382 15.8925 25.9911C15.3398 25.4739 14.6899 25.0717 13.9805 24.8078C13.2711 24.5438 12.5163 24.4234 11.76 24.4536C11.5584 22.6647 11.7798 20.8534 12.4064 19.1658C13.033 17.4781 14.0473 15.9612 15.3675 14.7373C16.659 13.5313 18.1835 12.6021 19.8473 12.0069C21.5111 11.4117 23.2791 11.163 25.0425 11.2761L20.9362 14.2386C20.3061 14.686 19.7746 15.2581 19.3748 15.9194C18.9749 16.5807 18.7153 17.3171 18.6119 18.083C18.5085 18.8489 18.5636 19.6278 18.7738 20.3714C18.984 21.1151 19.3448 21.8077 19.8337 22.4061C20.8201 23.6143 22.2286 24.4026 23.7742 24.6115C25.3199 24.8203 26.8871 24.4342 28.1587 23.5311L33.21 19.8936H38.61L47.1637 27.9823ZM23.13 17.2761L31.4662 11.2686H33.285C33.4413 11.267 33.5977 11.2708 33.7537 11.2798H37.6162C42.0862 11.2798 46.1362 13.6048 48.1912 17.2498C49.515 19.5861 49.9087 22.2748 49.3237 24.8473L41.025 16.6798C40.6745 16.3362 40.2033 16.1437 39.7125 16.1436H32.5987C32.2058 16.1435 31.8228 16.2668 31.5037 16.4961L25.9687 20.4898C25.4757 20.8324 24.8722 20.9778 24.2773 20.8973C23.6823 20.8167 23.1392 20.5162 22.755 20.0548C22.5851 19.8531 22.4593 19.618 22.3857 19.3648C22.3121 19.1115 22.2923 18.8456 22.3276 18.5843C22.363 18.3229 22.4526 18.0718 22.5908 17.8471C22.729 17.6225 22.9126 17.4292 23.13 17.2798V17.2761ZM27.1875 42.1311C27.5153 41.8306 27.9443 41.6646 28.389 41.666C28.8337 41.6673 29.2615 41.8361 29.5875 42.1386C29.7445 42.2833 29.8699 42.459 29.9556 42.6545C30.0413 42.8501 30.0856 43.0613 30.0856 43.2748C30.0856 43.4884 30.0413 43.6996 29.9556 43.8952C29.8699 44.0907 29.7445 44.2664 29.5875 44.4111L27.0675 46.7923C26.7406 47.0938 26.3122 47.2612 25.8675 47.2612C25.4228 47.2612 24.9944 47.0938 24.6675 46.7923C24.5105 46.6476 24.3851 46.472 24.2994 46.2764C24.2136 46.0808 24.1694 45.8696 24.1694 45.6561C24.1694 45.4426 24.2136 45.2313 24.2994 45.0358C24.3851 44.8402 24.5105 44.6645 24.6675 44.5198L27.1875 42.1348V42.1311ZM24.465 39.5548L21.9412 41.9436C21.6141 42.2462 21.1849 42.4142 20.7394 42.4142C20.2938 42.4142 19.8646 42.2462 19.5375 41.9436C19.3839 41.8019 19.2607 41.6305 19.1753 41.4398C19.0899 41.2491 19.044 41.043 19.0405 40.8341C19.037 40.6252 19.0759 40.4177 19.1549 40.2243C19.2339 40.0308 19.3513 39.8554 19.5 39.7086L19.5375 39.6711L22.0537 37.2898L22.0912 37.2523C22.4207 36.9655 22.8447 36.8106 23.2816 36.8175C23.7184 36.8244 24.1372 36.9927 24.4575 37.2898C24.6138 37.4339 24.7387 37.6088 24.8244 37.8033C24.91 37.9979 24.9546 38.2081 24.9553 38.4207C24.956 38.6333 24.9128 38.8438 24.8285 39.0389C24.7441 39.2341 24.6204 39.4097 24.465 39.5548ZM19.3275 34.7136L16.815 37.0911L16.7737 37.1286C16.4445 37.4144 16.0213 37.5687 15.5853 37.5618C15.1493 37.5548 14.7313 37.3872 14.4112 37.0911C14.2542 36.9464 14.1289 36.7707 14.0431 36.5752C13.9574 36.3796 13.9131 36.1684 13.9131 35.9548C13.9131 35.7413 13.9574 35.5301 14.0431 35.3345C14.1289 35.139 14.2542 34.9633 14.4112 34.8186L16.9237 32.4411C17.2511 32.1375 17.681 31.9687 18.1275 31.9687C18.574 31.9687 19.0039 32.1375 19.3312 32.4411C19.4848 32.5828 19.608 32.7542 19.6934 32.9449C19.7789 33.1356 19.8247 33.3416 19.8282 33.5506C19.8317 33.7595 19.7928 33.967 19.7138 34.1604C19.6349 34.3539 19.5175 34.5293 19.3687 34.6761L19.3312 34.7136H19.3275ZM13.17 30.8398L10.6537 33.2211C10.3269 33.5226 9.89845 33.69 9.45375 33.69C9.00905 33.69 8.58064 33.5226 8.25375 33.2211C8.0967 33.0764 7.97136 32.9007 7.88563 32.7052C7.79989 32.5096 7.75563 32.2984 7.75563 32.0848C7.75563 31.8713 7.79989 31.6601 7.88563 31.4645C7.97136 31.269 8.0967 31.0933 8.25375 30.9486L10.7662 28.5673C11.0934 28.2648 11.5225 28.0967 11.9681 28.0967C12.4137 28.0967 12.8429 28.2648 13.17 28.5673C13.327 28.712 13.4524 28.8877 13.5381 29.0833C13.6239 29.2788 13.6681 29.4901 13.6681 29.7036C13.6681 29.9171 13.6239 30.1283 13.5381 30.3239C13.4524 30.5195 13.327 30.6952 13.17 30.8398Z" fill="white"/>
</svg>
