<svg width="1401" height="421" viewBox="0 0 1401 421" fill="none" xmlns="http://www.w3.org/2000/svg">
<rect opacity="0.5" x="1.5" y="19.5" width="1397" height="192" rx="96" stroke="url(#paint0_linear_322_4)" stroke-width="3"/>
<rect opacity="0.5" x="1399.5" y="403.5" width="1397" height="192" rx="95.9999" transform="rotate(-180 1399.5 403.5)" stroke="url(#paint1_linear_322_4)" stroke-width="3"/>
<path d="M355.55 395.065C355.411 395.203 355.301 395.368 355.225 395.55C355.15 395.731 355.111 395.926 355.111 396.122C355.111 396.319 355.15 396.513 355.225 396.695C355.301 396.876 355.411 397.041 355.55 397.18L361.37 403L355.55 408.82C355.411 408.959 355.301 409.123 355.226 409.305C355.151 409.486 355.112 409.681 355.112 409.877C355.112 410.074 355.151 410.268 355.226 410.45C355.301 410.631 355.411 410.796 355.55 410.935C355.689 411.074 355.854 411.184 356.035 411.259C356.217 411.334 356.411 411.373 356.608 411.373C356.804 411.373 356.998 411.334 357.18 411.259C357.361 411.184 357.526 411.074 357.665 410.935L364.55 404.05C364.689 403.911 364.799 403.746 364.875 403.565C364.95 403.383 364.989 403.189 364.989 402.992C364.989 402.796 364.95 402.601 364.875 402.42C364.799 402.238 364.689 402.073 364.55 401.935L357.68 395.065C357.095 394.48 356.135 394.48 355.55 395.065Z" fill="#99C2D7"/>
<path d="M365.435 395.065C365.296 395.203 365.185 395.368 365.11 395.55C365.035 395.731 364.996 395.926 364.996 396.122C364.996 396.319 365.035 396.513 365.11 396.695C365.185 396.876 365.296 397.041 365.435 397.18L371.255 403L365.435 408.82C365.154 409.1 364.997 409.481 364.997 409.877C364.997 410.274 365.154 410.654 365.435 410.935C365.715 411.215 366.096 411.373 366.492 411.373C366.889 411.373 367.269 411.215 367.55 410.935L374.435 404.05C374.574 403.911 374.684 403.746 374.759 403.565C374.835 403.383 374.873 403.189 374.873 402.992C374.873 402.796 374.835 402.601 374.759 402.42C374.684 402.238 374.574 402.073 374.435 401.935L367.55 395.05C366.98 394.48 366.02 394.48 365.435 395.065Z" fill="#99C2D7"/>
<path d="M355.55 10.0647C355.411 10.2035 355.301 10.3683 355.225 10.5498C355.15 10.7313 355.111 10.9258 355.111 11.1222C355.111 11.3187 355.15 11.5132 355.225 11.6947C355.301 11.8761 355.411 12.041 355.55 12.1797L361.37 17.9997L355.55 23.8197C355.411 23.9586 355.301 24.1235 355.226 24.3049C355.151 24.4864 355.112 24.6808 355.112 24.8772C355.112 25.0736 355.151 25.2681 355.226 25.4495C355.301 25.631 355.411 25.7959 355.55 25.9347C355.689 26.0736 355.854 26.1838 356.035 26.2589C356.217 26.3341 356.411 26.3728 356.608 26.3728C356.804 26.3728 356.998 26.3341 357.18 26.2589C357.361 26.1838 357.526 26.0736 357.665 25.9347L364.55 19.0497C364.689 18.911 364.799 18.7461 364.875 18.5647C364.95 18.3832 364.989 18.1887 364.989 17.9922C364.989 17.7958 364.95 17.6013 364.875 17.4198C364.799 17.2383 364.689 17.0735 364.55 16.9347L357.68 10.0647C357.095 9.47973 356.135 9.47973 355.55 10.0647Z" fill="#99C2D7"/>
<path d="M365.435 10.0647C365.296 10.2034 365.185 10.3683 365.11 10.5497C365.035 10.7312 364.996 10.9257 364.996 11.1222C364.996 11.3186 365.035 11.5131 365.11 11.6946C365.185 11.8761 365.296 12.0409 365.435 12.1797L371.255 17.9997L365.435 23.8197C365.154 24.1001 364.997 24.4805 364.997 24.8772C364.997 25.2738 365.154 25.6542 365.435 25.9347C365.715 26.2151 366.096 26.3727 366.492 26.3727C366.889 26.3727 367.269 26.2151 367.55 25.9347L374.435 19.0497C374.574 18.9109 374.684 18.7461 374.759 18.5646C374.835 18.3831 374.873 18.1886 374.873 17.9922C374.873 17.7957 374.835 17.6012 374.759 17.4197C374.684 17.2383 374.574 17.0734 374.435 16.9347L367.55 10.0497C366.98 9.47967 366.02 9.47967 365.435 10.0647Z" fill="#99C2D7"/>
<path d="M691.55 395.065C691.411 395.203 691.301 395.368 691.225 395.55C691.15 395.731 691.111 395.926 691.111 396.122C691.111 396.319 691.15 396.513 691.225 396.695C691.301 396.876 691.411 397.041 691.55 397.18L697.37 403L691.55 408.82C691.411 408.959 691.301 409.123 691.226 409.305C691.151 409.486 691.112 409.681 691.112 409.877C691.112 410.074 691.151 410.268 691.226 410.45C691.301 410.631 691.411 410.796 691.55 410.935C691.689 411.074 691.854 411.184 692.035 411.259C692.217 411.334 692.411 411.373 692.607 411.373C692.804 411.373 692.998 411.334 693.18 411.259C693.361 411.184 693.526 411.074 693.665 410.935L700.55 404.05C700.689 403.911 700.799 403.746 700.875 403.565C700.95 403.383 700.989 403.189 700.989 402.992C700.989 402.796 700.95 402.601 700.875 402.42C700.799 402.238 700.689 402.073 700.55 401.935L693.68 395.065C693.095 394.48 692.135 394.48 691.55 395.065Z" fill="#99C2D7"/>
<path d="M701.435 395.065C701.296 395.203 701.185 395.368 701.11 395.55C701.035 395.731 700.996 395.926 700.996 396.122C700.996 396.319 701.035 396.513 701.11 396.695C701.185 396.876 701.296 397.041 701.435 397.18L707.255 403L701.435 408.82C701.154 409.1 700.997 409.481 700.997 409.877C700.997 410.274 701.154 410.654 701.435 410.935C701.715 411.215 702.096 411.373 702.492 411.373C702.889 411.373 703.269 411.215 703.55 410.935L710.435 404.05C710.574 403.911 710.684 403.746 710.759 403.565C710.835 403.383 710.873 403.189 710.873 402.992C710.873 402.796 710.835 402.601 710.759 402.42C710.684 402.238 710.574 402.073 710.435 401.935L703.55 395.05C702.98 394.48 702.02 394.48 701.435 395.065Z" fill="#99C2D7"/>
<path d="M691.55 10.0647C691.411 10.2035 691.301 10.3683 691.225 10.5498C691.15 10.7313 691.111 10.9258 691.111 11.1222C691.111 11.3187 691.15 11.5132 691.225 11.6947C691.301 11.8761 691.411 12.041 691.55 12.1797L697.37 17.9997L691.55 23.8197C691.411 23.9586 691.301 24.1235 691.226 24.3049C691.151 24.4864 691.112 24.6808 691.112 24.8772C691.112 25.0736 691.151 25.2681 691.226 25.4495C691.301 25.631 691.411 25.7959 691.55 25.9347C691.689 26.0736 691.854 26.1838 692.035 26.2589C692.217 26.3341 692.411 26.3728 692.607 26.3728C692.804 26.3728 692.998 26.3341 693.18 26.2589C693.361 26.1838 693.526 26.0736 693.665 25.9347L700.55 19.0497C700.689 18.911 700.799 18.7461 700.875 18.5647C700.95 18.3832 700.989 18.1887 700.989 17.9922C700.989 17.7958 700.95 17.6013 700.875 17.4198C700.799 17.2383 700.689 17.0735 700.55 16.9347L693.68 10.0647C693.095 9.47973 692.135 9.47973 691.55 10.0647Z" fill="#99C2D7"/>
<path d="M701.435 10.0647C701.296 10.2034 701.185 10.3683 701.11 10.5497C701.035 10.7312 700.996 10.9257 700.996 11.1222C700.996 11.3186 701.035 11.5131 701.11 11.6946C701.185 11.8761 701.296 12.0409 701.435 12.1797L707.255 17.9997L701.435 23.8197C701.154 24.1001 700.997 24.4805 700.997 24.8772C700.997 25.2738 701.154 25.6542 701.435 25.9347C701.715 26.2151 702.096 26.3727 702.492 26.3727C702.889 26.3727 703.269 26.2151 703.55 25.9347L710.435 19.0497C710.574 18.9109 710.684 18.7461 710.759 18.5646C710.835 18.3831 710.873 18.1886 710.873 17.9922C710.873 17.7957 710.835 17.6012 710.759 17.4197C710.684 17.2383 710.574 17.0734 710.435 16.9347L703.55 10.0497C702.98 9.47967 702.02 9.47967 701.435 10.0647Z" fill="#99C2D7"/>
<path d="M1027.55 395.065C1027.41 395.203 1027.3 395.368 1027.23 395.55C1027.15 395.731 1027.11 395.926 1027.11 396.122C1027.11 396.319 1027.15 396.513 1027.23 396.695C1027.3 396.876 1027.41 397.041 1027.55 397.18L1033.37 403L1027.55 408.82C1027.41 408.959 1027.3 409.123 1027.23 409.305C1027.15 409.486 1027.11 409.681 1027.11 409.877C1027.11 410.074 1027.15 410.268 1027.23 410.45C1027.3 410.631 1027.41 410.796 1027.55 410.935C1027.69 411.074 1027.85 411.184 1028.04 411.259C1028.22 411.334 1028.41 411.373 1028.61 411.373C1028.8 411.373 1029 411.334 1029.18 411.259C1029.36 411.184 1029.53 411.074 1029.66 410.935L1036.55 404.05C1036.69 403.911 1036.8 403.746 1036.87 403.565C1036.95 403.383 1036.99 403.189 1036.99 402.992C1036.99 402.796 1036.95 402.601 1036.87 402.42C1036.8 402.238 1036.69 402.073 1036.55 401.935L1029.68 395.065C1029.09 394.48 1028.13 394.48 1027.55 395.065Z" fill="#99C2D7"/>
<path d="M1037.43 395.065C1037.3 395.203 1037.19 395.368 1037.11 395.55C1037.03 395.731 1037 395.926 1037 396.122C1037 396.319 1037.03 396.513 1037.11 396.695C1037.19 396.876 1037.3 397.041 1037.43 397.18L1043.25 403L1037.43 408.82C1037.15 409.1 1037 409.481 1037 409.877C1037 410.274 1037.15 410.654 1037.43 410.935C1037.72 411.215 1038.1 411.373 1038.49 411.373C1038.89 411.373 1039.27 411.215 1039.55 410.935L1046.43 404.05C1046.57 403.911 1046.68 403.746 1046.76 403.565C1046.83 403.383 1046.87 403.189 1046.87 402.992C1046.87 402.796 1046.83 402.601 1046.76 402.42C1046.68 402.238 1046.57 402.073 1046.43 401.935L1039.55 395.05C1038.98 394.48 1038.02 394.48 1037.43 395.065Z" fill="#99C2D7"/>
<path d="M1027.55 10.0647C1027.41 10.2035 1027.3 10.3683 1027.23 10.5498C1027.15 10.7313 1027.11 10.9258 1027.11 11.1222C1027.11 11.3187 1027.15 11.5132 1027.23 11.6947C1027.3 11.8761 1027.41 12.041 1027.55 12.1797L1033.37 17.9997L1027.55 23.8197C1027.41 23.9586 1027.3 24.1235 1027.23 24.3049C1027.15 24.4864 1027.11 24.6808 1027.11 24.8772C1027.11 25.0736 1027.15 25.2681 1027.23 25.4495C1027.3 25.631 1027.41 25.7959 1027.55 25.9347C1027.69 26.0736 1027.85 26.1838 1028.04 26.2589C1028.22 26.3341 1028.41 26.3728 1028.61 26.3728C1028.8 26.3728 1029 26.3341 1029.18 26.2589C1029.36 26.1838 1029.53 26.0736 1029.66 25.9347L1036.55 19.0497C1036.69 18.911 1036.8 18.7461 1036.87 18.5647C1036.95 18.3832 1036.99 18.1887 1036.99 17.9922C1036.99 17.7958 1036.95 17.6013 1036.87 17.4198C1036.8 17.2383 1036.69 17.0735 1036.55 16.9347L1029.68 10.0647C1029.09 9.47973 1028.13 9.47973 1027.55 10.0647Z" fill="#99C2D7"/>
<path d="M1037.43 10.0647C1037.3 10.2034 1037.19 10.3683 1037.11 10.5497C1037.03 10.7312 1037 10.9257 1037 11.1222C1037 11.3186 1037.03 11.5131 1037.11 11.6946C1037.19 11.8761 1037.3 12.0409 1037.43 12.1797L1043.25 17.9997L1037.43 23.8197C1037.15 24.1001 1037 24.4805 1037 24.8772C1037 25.2738 1037.15 25.6542 1037.43 25.9347C1037.72 26.2151 1038.1 26.3727 1038.49 26.3727C1038.89 26.3727 1039.27 26.2151 1039.55 25.9347L1046.43 19.0497C1046.57 18.9109 1046.68 18.7461 1046.76 18.5646C1046.83 18.3831 1046.87 18.1886 1046.87 17.9922C1046.87 17.7957 1046.83 17.6012 1046.76 17.4197C1046.68 17.2383 1046.57 17.0734 1046.43 16.9347L1039.55 10.0497C1038.98 9.47967 1038.02 9.47967 1037.43 10.0647Z" fill="#99C2D7"/>
<path d="M1046.45 205.065C1046.59 205.203 1046.7 205.368 1046.77 205.55C1046.85 205.731 1046.89 205.926 1046.89 206.122C1046.89 206.319 1046.85 206.513 1046.77 206.695C1046.7 206.876 1046.59 207.041 1046.45 207.18L1040.63 213L1046.45 218.82C1046.59 218.959 1046.7 219.123 1046.77 219.305C1046.85 219.486 1046.89 219.681 1046.89 219.877C1046.89 220.074 1046.85 220.268 1046.77 220.45C1046.7 220.631 1046.59 220.796 1046.45 220.935C1046.31 221.074 1046.15 221.184 1045.96 221.259C1045.78 221.334 1045.59 221.373 1045.39 221.373C1045.2 221.373 1045 221.334 1044.82 221.259C1044.64 221.184 1044.47 221.074 1044.34 220.935L1037.45 214.05C1037.31 213.911 1037.2 213.746 1037.13 213.565C1037.05 213.383 1037.01 213.189 1037.01 212.992C1037.01 212.796 1037.05 212.601 1037.13 212.42C1037.2 212.238 1037.31 212.073 1037.45 211.935L1044.32 205.065C1044.91 204.48 1045.87 204.48 1046.45 205.065Z" fill="#99C2D7"/>
<path d="M1036.57 205.065C1036.7 205.203 1036.81 205.368 1036.89 205.55C1036.97 205.731 1037 205.926 1037 206.122C1037 206.319 1036.97 206.513 1036.89 206.695C1036.81 206.876 1036.7 207.041 1036.57 207.18L1030.75 213L1036.57 218.82C1036.85 219.1 1037 219.481 1037 219.877C1037 220.274 1036.85 220.654 1036.57 220.935C1036.28 221.215 1035.9 221.373 1035.51 221.373C1035.11 221.373 1034.73 221.215 1034.45 220.935L1027.57 214.05C1027.43 213.911 1027.32 213.746 1027.24 213.565C1027.17 213.383 1027.13 213.189 1027.13 212.992C1027.13 212.796 1027.17 212.601 1027.24 212.42C1027.32 212.238 1027.43 212.073 1027.57 211.935L1034.45 205.05C1035.02 204.48 1035.98 204.48 1036.57 205.065Z" fill="#99C2D7"/>
<path d="M374.45 205.065C374.589 205.203 374.699 205.368 374.775 205.55C374.85 205.731 374.889 205.926 374.889 206.122C374.889 206.319 374.85 206.513 374.775 206.695C374.699 206.876 374.589 207.041 374.45 207.18L368.63 213L374.45 218.82C374.589 218.959 374.699 219.123 374.774 219.305C374.849 219.486 374.888 219.681 374.888 219.877C374.888 220.074 374.849 220.268 374.774 220.45C374.699 220.631 374.589 220.796 374.45 220.935C374.311 221.074 374.146 221.184 373.965 221.259C373.783 221.334 373.589 221.373 373.392 221.373C373.196 221.373 373.002 221.334 372.82 221.259C372.639 221.184 372.474 221.074 372.335 220.935L365.45 214.05C365.311 213.911 365.201 213.746 365.125 213.565C365.05 213.383 365.011 213.189 365.011 212.992C365.011 212.796 365.05 212.601 365.125 212.42C365.201 212.238 365.311 212.073 365.45 211.935L372.32 205.065C372.905 204.48 373.865 204.48 374.45 205.065Z" fill="#99C2D7"/>
<path d="M364.565 205.065C364.704 205.203 364.815 205.368 364.89 205.55C364.965 205.731 365.004 205.926 365.004 206.122C365.004 206.319 364.965 206.513 364.89 206.695C364.815 206.876 364.704 207.041 364.565 207.18L358.745 213L364.565 218.82C364.846 219.1 365.003 219.481 365.003 219.877C365.003 220.274 364.846 220.654 364.565 220.935C364.285 221.215 363.904 221.373 363.508 221.373C363.111 221.373 362.731 221.215 362.45 220.935L355.565 214.05C355.426 213.911 355.316 213.746 355.241 213.565C355.165 213.383 355.127 213.189 355.127 212.992C355.127 212.796 355.165 212.601 355.241 212.42C355.316 212.238 355.426 212.073 355.565 211.935L362.45 205.05C363.02 204.48 363.98 204.48 364.565 205.065Z" fill="#99C2D7"/>
<defs>
<linearGradient id="paint0_linear_322_4" x1="1400" y1="116.099" x2="87.1409" y2="116.098" gradientUnits="userSpaceOnUse">
<stop offset="0.864583" stop-color="#CDE8FB"/>
<stop offset="1" stop-color="#CDE8FB" stop-opacity="0"/>
</linearGradient>
<linearGradient id="paint1_linear_322_4" x1="2801" y1="503.099" x2="1488.14" y2="503.098" gradientUnits="userSpaceOnUse">
<stop offset="0.864583" stop-color="#CDE8FB"/>
<stop offset="1" stop-color="#CDE8FB" stop-opacity="0"/>
</linearGradient>
</defs>
</svg>
