<svg width="60" height="60" viewBox="0 0 60 60" fill="none" xmlns="http://www.w3.org/2000/svg">
<path d="M37.5 42.5C37.0055 42.5 36.5222 42.6466 36.1111 42.9213C35.7 43.196 35.3795 43.5865 35.1903 44.0433C35.0011 44.5001 34.9516 45.0028 35.048 45.4877C35.1445 45.9727 35.3826 46.4181 35.7322 46.7678C36.0819 47.1174 36.5273 47.3555 37.0123 47.452C37.4972 47.5484 37.9999 47.4989 38.4567 47.3097C38.9135 47.1205 39.304 46.8 39.5787 46.3889C39.8534 45.9778 40 45.4945 40 45C40 44.337 39.7366 43.7011 39.2678 43.2322C38.7989 42.7634 38.163 42.5 37.5 42.5ZM22.5 42.5H15C14.337 42.5 13.7011 42.7634 13.2322 43.2322C12.7634 43.7011 12.5 44.337 12.5 45C12.5 45.663 12.7634 46.2989 13.2322 46.7678C13.7011 47.2366 14.337 47.5 15 47.5H22.5C23.163 47.5 23.7989 47.2366 24.2678 46.7678C24.7366 46.2989 25 45.663 25 45C25 44.337 24.7366 43.7011 24.2678 43.2322C23.7989 42.7634 23.163 42.5 22.5 42.5ZM45 42.5C44.5055 42.5 44.0222 42.6466 43.6111 42.9213C43.2 43.196 42.8795 43.5865 42.6903 44.0433C42.5011 44.5001 42.4516 45.0028 42.548 45.4877C42.6445 45.9727 42.8826 46.4181 43.2322 46.7678C43.5819 47.1174 44.0273 47.3555 44.5123 47.452C44.9972 47.5484 45.4999 47.4989 45.9567 47.3097C46.4135 47.1205 46.804 46.8 47.0787 46.3889C47.3534 45.9778 47.5 45.4945 47.5 45C47.5 44.337 47.2366 43.7011 46.7678 43.2322C46.2989 42.7634 45.663 42.5 45 42.5ZM37.5 27.5C37.0055 27.5 36.5222 27.6466 36.1111 27.9213C35.7 28.196 35.3795 28.5865 35.1903 29.0433C35.0011 29.5001 34.9516 30.0028 35.048 30.4877C35.1445 30.9727 35.3826 31.4181 35.7322 31.7678C36.0819 32.1174 36.5273 32.3555 37.0123 32.452C37.4972 32.5484 37.9999 32.4989 38.4567 32.3097C38.9135 32.1205 39.304 31.8 39.5787 31.3889C39.8534 30.9778 40 30.4945 40 30C40 29.337 39.7366 28.7011 39.2678 28.2322C38.7989 27.7634 38.163 27.5 37.5 27.5ZM22.5 27.5H15C14.337 27.5 13.7011 27.7634 13.2322 28.2322C12.7634 28.7011 12.5 29.337 12.5 30C12.5 30.663 12.7634 31.2989 13.2322 31.7678C13.7011 32.2366 14.337 32.5 15 32.5H22.5C23.163 32.5 23.7989 32.2366 24.2678 31.7678C24.7366 31.2989 25 30.663 25 30C25 29.337 24.7366 28.7011 24.2678 28.2322C23.7989 27.7634 23.163 27.5 22.5 27.5ZM45 12.5C44.5055 12.5 44.0222 12.6466 43.6111 12.9213C43.2 13.196 42.8795 13.5865 42.6903 14.0433C42.5011 14.5001 42.4516 15.0028 42.548 15.4877C42.6445 15.9727 42.8826 16.4181 43.2322 16.7678C43.5819 17.1174 44.0273 17.3555 44.5123 17.452C44.9972 17.5484 45.4999 17.4989 45.9567 17.3097C46.4135 17.1205 46.804 16.8 47.0787 16.3889C47.3534 15.9778 47.5 15.4945 47.5 15C47.5 14.337 47.2366 13.7011 46.7678 13.2322C46.2989 12.7634 45.663 12.5 45 12.5ZM45 27.5C44.5055 27.5 44.0222 27.6466 43.6111 27.9213C43.2 28.196 42.8795 28.5865 42.6903 29.0433C42.5011 29.5001 42.4516 30.0028 42.548 30.4877C42.6445 30.9727 42.8826 31.4181 43.2322 31.7678C43.5819 32.1174 44.0273 32.3555 44.5123 32.452C44.9972 32.5484 45.4999 32.4989 45.9567 32.3097C46.4135 32.1205 46.804 31.8 47.0787 31.3889C47.3534 30.9778 47.5 30.4945 47.5 30C47.5 29.337 47.2366 28.7011 46.7678 28.2322C46.2989 27.7634 45.663 27.5 45 27.5ZM55 12.5C55 10.5109 54.2098 8.60322 52.8033 7.1967C51.3968 5.79018 49.4891 5 47.5 5H12.5C10.5109 5 8.60322 5.79018 7.1967 7.1967C5.79018 8.60322 5 10.5109 5 12.5V17.5C5.01103 19.3501 5.70553 21.1309 6.95 22.5C5.70553 23.8691 5.01103 25.6499 5 27.5V32.5C5.01103 34.3501 5.70553 36.1309 6.95 37.5C5.70553 38.8691 5.01103 40.6499 5 42.5V47.5C5 49.4891 5.79018 51.3968 7.1967 52.8033C8.60322 54.2098 10.5109 55 12.5 55H47.5C49.4891 55 51.3968 54.2098 52.8033 52.8033C54.2098 51.3968 55 49.4891 55 47.5V42.5C54.989 40.6499 54.2945 38.8691 53.05 37.5C54.2945 36.1309 54.989 34.3501 55 32.5V27.5C54.989 25.6499 54.2945 23.8691 53.05 22.5C54.2945 21.1309 54.989 19.3501 55 17.5V12.5ZM50 47.5C50 48.163 49.7366 48.7989 49.2678 49.2678C48.7989 49.7366 48.163 50 47.5 50H12.5C11.837 50 11.2011 49.7366 10.7322 49.2678C10.2634 48.7989 10 48.163 10 47.5V42.5C10 41.837 10.2634 41.2011 10.7322 40.7322C11.2011 40.2634 11.837 40 12.5 40H47.5C48.163 40 48.7989 40.2634 49.2678 40.7322C49.7366 41.2011 50 41.837 50 42.5V47.5ZM50 32.5C50 33.163 49.7366 33.7989 49.2678 34.2678C48.7989 34.7366 48.163 35 47.5 35H12.5C11.837 35 11.2011 34.7366 10.7322 34.2678C10.2634 33.7989 10 33.163 10 32.5V27.5C10 26.837 10.2634 26.2011 10.7322 25.7322C11.2011 25.2634 11.837 25 12.5 25H47.5C48.163 25 48.7989 25.2634 49.2678 25.7322C49.7366 26.2011 50 26.837 50 27.5V32.5ZM50 17.5C50 18.163 49.7366 18.7989 49.2678 19.2678C48.7989 19.7366 48.163 20 47.5 20H12.5C11.837 20 11.2011 19.7366 10.7322 19.2678C10.2634 18.7989 10 18.163 10 17.5V12.5C10 11.837 10.2634 11.2011 10.7322 10.7322C11.2011 10.2634 11.837 10 12.5 10H47.5C48.163 10 48.7989 10.2634 49.2678 10.7322C49.7366 11.2011 50 11.837 50 12.5V17.5ZM37.5 12.5C37.0055 12.5 36.5222 12.6466 36.1111 12.9213C35.7 13.196 35.3795 13.5865 35.1903 14.0433C35.0011 14.5001 34.9516 15.0028 35.048 15.4877C35.1445 15.9727 35.3826 16.4181 35.7322 16.7678C36.0819 17.1174 36.5273 17.3555 37.0123 17.452C37.4972 17.5484 37.9999 17.4989 38.4567 17.3097C38.9135 17.1205 39.304 16.8 39.5787 16.3889C39.8534 15.9778 40 15.4945 40 15C40 14.337 39.7366 13.7011 39.2678 13.2322C38.7989 12.7634 38.163 12.5 37.5 12.5ZM22.5 12.5H15C14.337 12.5 13.7011 12.7634 13.2322 13.2322C12.7634 13.7011 12.5 14.337 12.5 15C12.5 15.663 12.7634 16.2989 13.2322 16.7678C13.7011 17.2366 14.337 17.5 15 17.5H22.5C23.163 17.5 23.7989 17.2366 24.2678 16.7678C24.7366 16.2989 25 15.663 25 15C25 14.337 24.7366 13.7011 24.2678 13.2322C23.7989 12.7634 23.163 12.5 22.5 12.5Z" fill="white"/>
</svg>
