<svg width="60" height="60" viewBox="0 0 60 60" fill="none" xmlns="http://www.w3.org/2000/svg">
<path d="M19.6875 17.8125C19.6875 17.0666 19.9838 16.3512 20.5113 15.8238C21.0387 15.2963 21.7541 15 22.5 15H37.5C38.2459 15 38.9613 15.2963 39.4887 15.8238C40.0162 16.3512 40.3125 17.0666 40.3125 17.8125C40.3125 18.5584 40.0162 19.2738 39.4887 19.8012C38.9613 20.3287 38.2459 20.625 37.5 20.625H22.5C21.7541 20.625 21.0387 20.3287 20.5113 19.8012C19.9838 19.2738 19.6875 18.5584 19.6875 17.8125ZM22.5 30H37.5C38.2459 30 38.9613 29.7037 39.4887 29.1762C40.0162 28.6488 40.3125 27.9334 40.3125 27.1875C40.3125 26.4416 40.0162 25.7262 39.4887 25.1988C38.9613 24.6713 38.2459 24.375 37.5 24.375H22.5C21.7541 24.375 21.0387 24.6713 20.5113 25.1988C19.9838 25.7262 19.6875 26.4416 19.6875 27.1875C19.6875 27.9334 19.9838 28.6488 20.5113 29.1762C21.0387 29.7037 21.7541 30 22.5 30ZM30 39.375C29.2583 39.375 28.5333 39.5949 27.9166 40.007C27.2999 40.419 26.8193 41.0047 26.5355 41.6899C26.2516 42.3752 26.1774 43.1292 26.3221 43.8566C26.4667 44.584 26.8239 45.2522 27.3484 45.7766C27.8728 46.3011 28.541 46.6582 29.2684 46.8029C29.9958 46.9476 30.7498 46.8734 31.4351 46.5896C32.1203 46.3057 32.706 45.8251 33.118 45.2084C33.5301 44.5917 33.75 43.8667 33.75 43.125C33.75 42.1304 33.3549 41.1766 32.6516 40.4734C31.9484 39.7701 30.9946 39.375 30 39.375ZM49.6875 9.375V50.625C49.6813 51.8663 49.1855 53.055 48.3078 53.9328C47.43 54.8105 46.2413 55.3063 45 55.3125H15C13.7587 55.3063 12.57 54.8105 11.6922 53.9328C10.8145 53.055 10.3187 51.8663 10.3125 50.625V9.375C10.3187 8.1337 10.8145 6.94499 11.6922 6.06724C12.57 5.1895 13.7587 4.69366 15 4.6875H45C46.2413 4.69366 47.43 5.1895 48.3078 6.06724C49.1855 6.94499 49.6813 8.1337 49.6875 9.375ZM44.0625 10.3125H15.9375V49.6875H44.0625V10.3125Z" fill="white"/>
</svg>
