<svg width="60" height="60" viewBox="0 0 60 60" fill="none" xmlns="http://www.w3.org/2000/svg">
<g clip-path="url(#clip0_2_226)">
<path d="M26.25 9.375C26.25 8.87772 26.4475 8.40081 26.7992 8.04918C27.1508 7.69754 27.6277 7.5 28.125 7.5H54.375C54.8723 7.5 55.3492 7.69754 55.7008 8.04918C56.0525 8.40081 56.25 8.87772 56.25 9.375V13.125C56.25 13.6223 56.0525 14.0992 55.7008 14.4508C55.3492 14.8025 54.8723 15 54.375 15H28.125C27.6277 15 27.1508 14.8025 26.7992 14.4508C26.4475 14.0992 26.25 13.6223 26.25 13.125V9.375ZM7.5 3.75C5.51088 3.75 3.60322 4.54018 2.1967 5.9467C0.790176 7.35322 0 9.26088 0 11.25L0 18.75C0 20.7391 0.790176 22.6468 2.1967 24.0533C3.60322 25.4598 5.51088 26.25 7.5 26.25H15C16.9891 26.25 18.8968 25.4598 20.3033 24.0533C21.7098 22.6468 22.5 20.7391 22.5 18.75V11.25C22.5 9.26088 21.7098 7.35322 20.3033 5.9467C18.8968 4.54018 16.9891 3.75 15 3.75H7.5ZM7.5 33.75C5.51088 33.75 3.60322 34.5402 2.1967 35.9467C0.790176 37.3532 0 39.2609 0 41.25L0 48.75C0 50.7391 0.790176 52.6468 2.1967 54.0533C3.60322 55.4598 5.51088 56.25 7.5 56.25H15C16.9891 56.25 18.8968 55.4598 20.3033 54.0533C21.7098 52.6468 22.5 50.7391 22.5 48.75V41.25C22.5 39.2609 21.7098 37.3532 20.3033 35.9467C18.8968 34.5402 16.9891 33.75 15 33.75H7.5ZM10.7025 20.0775C10.5283 20.2521 10.3214 20.3906 10.0936 20.4852C9.86583 20.5797 9.62163 20.6284 9.375 20.6284C9.12837 20.6284 8.88417 20.5797 8.65637 20.4852C8.42858 20.3906 8.22167 20.2521 8.0475 20.0775L4.2975 16.3275C4.12317 16.1532 3.98488 15.9462 3.89054 15.7184C3.79619 15.4907 3.74763 15.2465 3.74763 15C3.74763 14.7535 3.79619 14.5093 3.89054 14.2816C3.98488 14.0538 4.12317 13.8468 4.2975 13.6725C4.47183 13.4982 4.67879 13.3599 4.90656 13.2655C5.13434 13.1712 5.37846 13.1226 5.625 13.1226C5.87154 13.1226 6.11566 13.1712 6.34344 13.2655C6.57121 13.3599 6.77817 13.4982 6.9525 13.6725L9.375 16.0988L15.5475 9.9225C15.7218 9.74817 15.9288 9.60988 16.1566 9.51554C16.3843 9.42119 16.6285 9.37263 16.875 9.37263C17.1215 9.37263 17.3657 9.42119 17.5934 9.51554C17.8212 9.60988 18.0282 9.74817 18.2025 9.9225C18.3768 10.0968 18.5151 10.3038 18.6095 10.5316C18.7038 10.7593 18.7524 11.0035 18.7524 11.25C18.7524 11.4965 18.7038 11.7407 18.6095 11.9684C18.5151 12.1962 18.3768 12.4032 18.2025 12.5775L10.7025 20.0775ZM10.7025 50.0775C10.5283 50.2521 10.3214 50.3906 10.0936 50.4852C9.86583 50.5797 9.62163 50.6283 9.375 50.6283C9.12837 50.6283 8.88417 50.5797 8.65637 50.4852C8.42858 50.3906 8.22167 50.2521 8.0475 50.0775L4.2975 46.3275C3.94543 45.9754 3.74763 45.4979 3.74763 45C3.74763 44.5021 3.94543 44.0246 4.2975 43.6725C4.64957 43.3204 5.12709 43.1226 5.625 43.1226C6.12291 43.1226 6.60043 43.3204 6.9525 43.6725L9.375 46.0988L15.5475 39.9225C15.8996 39.5704 16.3771 39.3726 16.875 39.3726C17.3729 39.3726 17.8504 39.5704 18.2025 39.9225C18.5546 40.2746 18.7524 40.7521 18.7524 41.25C18.7524 41.7479 18.5546 42.2254 18.2025 42.5775L10.7025 50.0775ZM26.25 39.375C26.25 38.8777 26.4475 38.4008 26.7992 38.0492C27.1508 37.6975 27.6277 37.5 28.125 37.5H54.375C54.8723 37.5 55.3492 37.6975 55.7008 38.0492C56.0525 38.4008 56.25 38.8777 56.25 39.375V43.125C56.25 43.6223 56.0525 44.0992 55.7008 44.4508C55.3492 44.8025 54.8723 45 54.375 45H28.125C27.6277 45 27.1508 44.8025 26.7992 44.4508C26.4475 44.0992 26.25 43.6223 26.25 43.125V39.375ZM26.25 20.625C26.25 20.1277 26.4475 19.6508 26.7992 19.2992C27.1508 18.9475 27.6277 18.75 28.125 18.75H46.875C47.3723 18.75 47.8492 18.9475 48.2008 19.2992C48.5525 19.6508 48.75 20.1277 48.75 20.625C48.75 21.1223 48.5525 21.5992 48.2008 21.9508C47.8492 22.3025 47.3723 22.5 46.875 22.5H28.125C27.6277 22.5 27.1508 22.3025 26.7992 21.9508C26.4475 21.5992 26.25 21.1223 26.25 20.625ZM26.25 50.625C26.25 50.1277 26.4475 49.6508 26.7992 49.2992C27.1508 48.9475 27.6277 48.75 28.125 48.75H46.875C47.3723 48.75 47.8492 48.9475 48.2008 49.2992C48.5525 49.6508 48.75 50.1277 48.75 50.625C48.75 51.1223 48.5525 51.5992 48.2008 51.9508C47.8492 52.3025 47.3723 52.5 46.875 52.5H28.125C27.6277 52.5 27.1508 52.3025 26.7992 51.9508C26.4475 51.5992 26.25 51.1223 26.25 50.625Z" fill="white"/>
</g>
<defs>
<clipPath id="clip0_2_226">
<rect width="60" height="60" fill="white"/>
</clipPath>
</defs>
</svg>
