<svg width="60" height="60" viewBox="0 0 60 60" fill="none" xmlns="http://www.w3.org/2000/svg">
<path d="M34.55 55H25.45C24.8798 55.0001 24.3268 54.8053 23.8825 54.4479C23.4383 54.0905 23.1295 53.592 23.0075 53.035L21.99 48.325C20.6326 47.7303 19.3456 46.9865 18.1525 46.1075L13.56 47.57C13.0164 47.7433 12.4299 47.7255 11.8978 47.5195C11.3657 47.3135 10.9201 46.9317 10.635 46.4375L6.075 38.56C5.79286 38.0653 5.68696 37.4896 5.77461 36.9269C5.86226 36.3642 6.13827 35.8479 6.5575 35.4625L10.12 32.2125C9.95799 30.7403 9.95799 29.2547 10.12 27.7825L6.5575 24.54C6.13768 24.1544 5.86129 23.6377 5.77362 23.0745C5.68596 22.5112 5.79222 21.9349 6.075 21.44L10.625 13.5575C10.9101 13.0633 11.3557 12.6815 11.8878 12.4755C12.4199 12.2695 13.0064 12.2517 13.55 12.425L18.1425 13.8875C18.7525 13.4375 19.3875 13.0175 20.0425 12.6375C20.675 12.2825 21.325 11.96 21.99 11.6725L23.01 6.9675C23.1314 6.41049 23.4396 5.91172 23.8834 5.55387C24.3272 5.19602 24.8799 5.0006 25.45 5H34.55C35.1201 5.0006 35.6728 5.19602 36.1166 5.55387C36.5604 5.91172 36.8686 6.41049 36.99 6.9675L38.02 11.675C39.3766 12.2697 40.6628 13.0135 41.855 13.8925L46.45 12.43C46.9933 12.2573 47.5792 12.2754 48.1108 12.4814C48.6423 12.6874 49.0875 13.0688 49.3725 13.5625L53.9225 21.445C54.5025 22.4625 54.3025 23.75 53.44 24.5425L49.8775 27.7925C50.0395 29.2647 50.0395 30.7503 49.8775 32.2225L53.44 35.4725C54.3025 36.2675 54.5025 37.5525 53.9225 38.57L49.3725 46.4525C49.0874 46.9467 48.6418 47.3285 48.1097 47.5345C47.5776 47.7405 46.9911 47.7584 46.4475 47.585L41.855 46.1225C40.6628 47.0009 39.3766 47.7438 38.02 48.3375L36.99 53.035C36.8681 53.5915 36.5597 54.0897 36.116 54.4471C35.6722 54.8045 35.1197 54.9995 34.55 55ZM19.05 40.5725L21.1 42.0725C21.5625 42.4125 22.0425 42.725 22.5425 43.01C23.0125 43.2825 23.4925 43.5275 23.99 43.75L26.3225 44.7725L27.465 50H32.54L33.6825 44.77L36.015 43.7475C37.0325 43.2975 38 42.74 38.8975 42.0825L40.9475 40.5825L46.0525 42.2075L48.59 37.8125L44.6325 34.205L44.9125 31.675C45.0375 30.5675 45.0375 29.45 44.9125 28.345L44.6325 25.815L48.5925 22.2L46.0525 17.8025L40.95 19.4275L38.8975 17.9275C37.9995 17.2667 37.0331 16.7043 36.015 16.25L33.6825 15.2275L32.54 10H27.465L26.315 15.23L23.99 16.25C22.9705 16.6965 22.0037 17.2549 21.1075 17.915L19.055 19.415L13.955 17.79L11.4125 22.2L15.37 25.8025L15.09 28.335C14.965 29.4425 14.965 30.56 15.09 31.665L15.37 34.195L11.4125 37.8025L13.95 42.1975L19.05 40.5725ZM29.99 40C27.3378 40 24.7943 38.9464 22.9189 37.0711C21.0436 35.1957 19.99 32.6522 19.99 30C19.99 27.3478 21.0436 24.8043 22.9189 22.9289C24.7943 21.0536 27.3378 20 29.99 20C32.6422 20 35.1857 21.0536 37.0611 22.9289C38.9364 24.8043 39.99 27.3478 39.99 30C39.99 32.6522 38.9364 35.1957 37.0611 37.0711C35.1857 38.9464 32.6422 40 29.99 40ZM29.99 25C29.0109 25.001 28.0536 25.2894 27.237 25.8295C26.4203 26.3696 25.7802 27.1376 25.396 28.0382C25.0118 28.9388 24.9006 29.9324 25.0759 30.8956C25.2513 31.8589 25.7057 32.7495 26.3826 33.4569C27.0595 34.1643 27.9293 34.6574 28.8839 34.875C29.8385 35.0926 30.836 35.0251 31.7526 34.6809C32.6693 34.3367 33.4647 33.731 34.0402 32.9389C34.6157 32.1468 34.9459 31.2031 34.99 30.225V31.225V30C34.99 28.6739 34.4632 27.4021 33.5255 26.4645C32.5879 25.5268 31.3161 25 29.99 25Z" fill="white"/>
</svg>
