<svg width="60" height="60" viewBox="0 0 60 60" fill="none" xmlns="http://www.w3.org/2000/svg">
<path d="M52.425 18.1749C52.6568 17.9436 52.8406 17.6689 52.9661 17.3664C53.0915 17.064 53.1561 16.7398 53.1561 16.4124C53.1561 16.0849 53.0915 15.7607 52.9661 15.4583C52.8406 15.1559 52.6568 14.8811 52.425 14.6499L45.35 7.57486C45.1187 7.3431 44.844 7.15923 44.5416 7.03378C44.2391 6.90832 43.9149 6.84375 43.5875 6.84375C43.2601 6.84375 42.9359 6.90832 42.6334 7.03378C42.331 7.15923 42.0563 7.3431 41.825 7.57486L30.6 18.7999L20.875 9.07486C18.925 7.12486 15.75 7.12486 13.8 9.07486L9.05 13.8249C7.1 15.7749 7.1 18.9499 9.05 20.8999L18.775 30.6249L7.5 41.8999V52.4999H18.1L29.4 41.1999L39.125 50.9249C41.5 53.2999 44.7 52.4249 46.2 50.9249L50.95 46.1749C52.9 44.2249 52.9 41.0499 50.95 39.0999L41.225 29.3749L52.425 18.1749ZM12.6 17.3499L17.325 12.5999L20.5 15.7749L17.55 18.7499L21.075 22.2749L24.05 19.2999L27.05 22.2999L22.3 27.0499L12.6 17.3499ZM40.675 35.9499L37.7 38.9249L41.225 42.4499L44.2 39.4749L47.375 42.6499L42.625 47.3999L32.9 37.6749L37.65 32.9249L40.675 35.9499ZM16.025 47.4999H12.5V43.9749L36.525 19.9499L39.775 23.1999L40.05 23.4749L16.025 47.4999ZM40.05 16.3999L43.575 12.8749L47.1 16.3999L43.575 19.9249L40.05 16.3999Z" fill="white"/>
</svg>
