<svg width="16" height="16" viewBox="0 0 16 16" fill="none" xmlns="http://www.w3.org/2000/svg">
<path d="M15.2 11.6V4.39995C15.2 3.73595 14.664 3.19995 14 3.19995H2.79204C2.12804 3.19995 1.59204 3.73595 1.59204 4.39995V11.6C1.59204 12.264 2.12804 12.8 2.79204 12.8H14C14.664 12.8 15.2 12.264 15.2 11.6ZM14.152 4.31195C14.416 4.57595 14.272 4.84795 14.128 4.98395L10.88 7.95995L14 11.208C14.096 11.32 14.16 11.496 14.048 11.616C13.944 11.744 13.704 11.736 13.6 11.656L10.104 8.67195L8.39204 10.232L6.68804 8.67195L3.19204 11.656C3.08804 11.736 2.84804 11.744 2.74404 11.616C2.63204 11.496 2.69604 11.32 2.79204 11.208L5.91204 7.95995L2.66404 4.98395C2.52004 4.84795 2.37604 4.57595 2.64004 4.31195C2.90404 4.04795 3.17604 4.17595 3.40004 4.36795L8.39204 8.39995L13.392 4.36795C13.616 4.17595 13.888 4.04795 14.152 4.31195Z" fill="white"/>
</svg>
