<svg width="84" height="69" viewBox="0 0 84 69" fill="none" xmlns="http://www.w3.org/2000/svg">
<path opacity="0.1" d="M0.2 45.9C0.2 37.1 2.4 28.7 6.8 20.7C11.4 12.7 17.3 6.09999 24.5 0.899986L35.6 9.9C30.8 13.1 26.5 17.4 22.7 22.8C18.9 28 16.8 33 16.4 37.8H17.9C18.9 37.6 19.7 37.5 20.3 37.5C24.5 37.5 27.9 39 30.5 42C33.3 44.8 34.7 48.4 34.7 52.8C34.7 57.2 33.1 61 29.9 64.2C26.9 67.2 23.2 68.7 18.8 68.7C13.6 68.7 9.2 66.7 5.6 62.7C2 58.5 0.2 52.9 0.2 45.9ZM48.2 45.9C48.2 37.1 50.4 28.7 54.8 20.7C59.4 12.7 65.3 6.09999 72.5 0.899986L83.6 9.9C78.8 13.1 74.5 17.4 70.7 22.8C67.1 28 65 33 64.4 37.8H65.9C66.9 37.6 67.7 37.5 68.3 37.5C72.5 37.5 76 39 78.8 42C81.6 44.8 83 48.4 83 52.8C83 57.2 81.4 61 78.2 64.2C75 67.2 71.2 68.7 66.8 68.7C61.6 68.7 57.2 66.7 53.6 62.7C50 58.5 48.2 52.9 48.2 45.9Z" fill="black"/>
</svg>
